<?xml version="1.0" standalone="no"?>
<!DOCTYPE svg PUBLIC "-//W3C//DTD SVG 20010904//EN"
 "http://www.w3.org/TR/2001/REC-SVG-20010904/DTD/svg10.dtd">
<svg version="1.0" xmlns="http://www.w3.org/2000/svg"
 width="193.000000pt" height="149.000000pt" viewBox="0 0 193.000000 149.000000"
 preserveAspectRatio="xMidYMid meet">

<g transform="translate(0.000000,149.000000) scale(0.100000,-0.100000)"
fill="#000000" stroke="none">
<path d="M432 1469 c-20 -6 -40 -22 -52 -42 -19 -30 -20 -52 -20 -344 0 -361
-12 -332 115 -280 122 51 318 164 555 321 297 198 466 324 451 339 -15 15
-999 20 -1049 6z"/>
<path d="M1490 1306 c-69 -95 -420 -620 -420 -628 0 -5 86 -8 190 -8 211 0
237 6 265 60 13 25 15 77 13 334 l-3 304 -45 -62z"/>
<path d="M645 489 c-167 -12 -286 -30 -253 -40 172 -47 943 -47 1116 0 22 6
11 10 -53 19 -203 30 -560 39 -810 21z"/>
<path d="M49 161 c-17 -18 -29 -40 -29 -56 0 -33 24 -81 45 -89 24 -9 78 -7
95 4 24 15 6 20 -28 8 -44 -17 -86 13 -90 65 -5 54 26 81 86 74 42 -5 45 -4
27 9 -31 23 -73 17 -106 -15z"/>
<path d="M296 165 c-20 -18 -26 -34 -26 -65 0 -56 34 -90 90 -90 56 0 90 34
90 90 0 82 -93 122 -154 65z m116 -12 c29 -26 24 -87 -8 -112 -34 -27 -57 -26
-90 2 -32 28 -36 78 -8 108 21 24 81 25 106 2z"/>
<path d="M560 100 c0 -53 4 -90 10 -90 6 0 10 28 11 63 l0 62 32 -62 c17 -35
34 -63 37 -63 3 0 20 28 37 63 l32 62 0 -62 c1 -35 5 -63 11 -63 6 0 10 37 10
90 0 50 -4 90 -8 90 -5 0 -23 -31 -42 -70 -19 -38 -37 -70 -40 -70 -3 0 -21
32 -40 70 -19 39 -37 70 -42 70 -4 0 -8 -40 -8 -90z"/>
<path d="M856 181 c-7 -11 1 -161 8 -169 4 -3 6 9 6 26 0 29 3 32 30 32 33 0
70 30 70 58 0 36 -29 62 -70 62 -21 0 -41 -4 -44 -9z m88 -33 c16 -26 -4 -52
-43 -56 -30 -3 -31 -2 -31 38 0 40 1 41 31 38 18 -2 37 -11 43 -20z"/>
<path d="M1072 112 l-2 -83 34 -14 c37 -15 59 -12 89 13 13 12 17 31 17 89 0
42 -4 73 -10 73 -6 0 -10 -32 -10 -75 0 -63 -3 -76 -19 -85 -27 -14 -44 -13
-67 4 -15 11 -20 31 -25 88 l-6 73 -1 -83z"/>
<path d="M1310 180 c0 -5 14 -10 30 -10 l30 0 0 -80 c0 -47 4 -80 10 -80 6 0
10 33 10 80 l0 80 30 0 c17 0 30 5 30 10 0 6 -30 10 -70 10 -40 0 -70 -4 -70
-10z"/>
<path d="M1548 178 c-3 -12 -3 -45 1 -140 1 -27 2 -28 62 -28 40 0 58 4 54 11
-4 6 -28 9 -54 7 -45 -2 -46 -2 -49 30 -3 31 -2 32 37 32 23 0 41 5 41 10 0 6
-18 10 -40 10 -38 0 -40 2 -40 30 0 30 1 30 55 30 30 0 55 5 55 10 0 15 -117
13 -122 -2z"/>
<path d="M1777 183 c-11 -11 -8 -173 3 -173 6 0 10 16 10 35 0 48 31 48 62 0
13 -19 26 -35 31 -35 12 0 8 13 -12 40 -19 24 -19 25 0 49 21 26 18 58 -9 79
-17 13 -74 17 -85 5z m84 -29 c19 -23 -1 -48 -40 -52 -30 -3 -31 -2 -31 32 0
33 2 36 29 36 16 0 34 -7 42 -16z"/>
</g>
</svg>
