<svg xmlns="http://www.w3.org/2000/svg" xmlns:xlink="http://www.w3.org/1999/xlink" version="1.1" width="256" height="256" viewBox="0 0 256 256" xml:space="preserve">

<defs>
</defs>
<g style="stroke: none; stroke-width: 0; stroke-dasharray: none; stroke-linecap: butt; stroke-linejoin: miter; stroke-miterlimit: 10; fill: none; fill-rule: nonzero; opacity: 1;" transform="translate(1.4065934065934016 1.4065934065934016) scale(2.81 2.81)" >
	<path d="M 74.786 80.665 H 15.213 c -3.241 0 -5.878 -2.638 -5.878 -5.879 V 15.213 c 0 -3.241 2.637 -5.878 5.878 -5.878 h 59.573 c 3.241 0 5.879 2.637 5.879 5.878 v 59.573 C 80.665 78.027 78.027 80.665 74.786 80.665 z M 15.213 13.335 c -1.036 0 -1.878 0.843 -1.878 1.878 v 59.573 c 0 1.036 0.843 1.879 1.878 1.879 h 59.573 c 1.036 0 1.879 -0.843 1.879 -1.879 V 15.213 c 0 -1.036 -0.843 -1.878 -1.879 -1.878 H 15.213 z" style="stroke: none; stroke-width: 1; stroke-dasharray: none; stroke-linecap: butt; stroke-linejoin: miter; stroke-miterlimit: 10; fill: rgb(0,0,0); fill-rule: nonzero; opacity: 1;" transform=" matrix(1 0 0 1 0 0) " stroke-linecap="round" />
	<path d="M 23.791 13.335 c -1.104 0 -2 -0.896 -2 -2 V 2 c 0 -1.104 0.896 -2 2 -2 s 2 0.896 2 2 v 9.335 C 25.791 12.439 24.895 13.335 23.791 13.335 z" style="stroke: none; stroke-width: 1; stroke-dasharray: none; stroke-linecap: butt; stroke-linejoin: miter; stroke-miterlimit: 10; fill: rgb(0,0,0); fill-rule: nonzero; opacity: 1;" transform=" matrix(1 0 0 1 0 0) " stroke-linecap="round" />
	<path d="M 23.791 90 c -1.104 0 -2 -0.896 -2 -2 v -9.335 c 0 -1.104 0.896 -2 2 -2 s 2 0.896 2 2 V 88 C 25.791 89.104 24.895 90 23.791 90 z" style="stroke: none; stroke-width: 1; stroke-dasharray: none; stroke-linecap: butt; stroke-linejoin: miter; stroke-miterlimit: 10; fill: rgb(0,0,0); fill-rule: nonzero; opacity: 1;" transform=" matrix(1 0 0 1 0 0) " stroke-linecap="round" />
	<path d="M 66.21 13.335 c -1.104 0 -2 -0.896 -2 -2 V 2 c 0 -1.104 0.896 -2 2 -2 s 2 0.896 2 2 v 9.335 C 68.21 12.439 67.314 13.335 66.21 13.335 z" style="stroke: none; stroke-width: 1; stroke-dasharray: none; stroke-linecap: butt; stroke-linejoin: miter; stroke-miterlimit: 10; fill: rgb(0,0,0); fill-rule: nonzero; opacity: 1;" transform=" matrix(1 0 0 1 0 0) " stroke-linecap="round" />
	<path d="M 66.21 90 c -1.104 0 -2 -0.896 -2 -2 v -9.335 c 0 -1.104 0.896 -2 2 -2 s 2 0.896 2 2 V 88 C 68.21 89.104 67.314 90 66.21 90 z" style="stroke: none; stroke-width: 1; stroke-dasharray: none; stroke-linecap: butt; stroke-linejoin: miter; stroke-miterlimit: 10; fill: rgb(0,0,0); fill-rule: nonzero; opacity: 1;" transform=" matrix(1 0 0 1 0 0) " stroke-linecap="round" />
	<path d="M 37.93 13.335 c -1.104 0 -2 -0.896 -2 -2 V 2 c 0 -1.104 0.896 -2 2 -2 s 2 0.896 2 2 v 9.335 C 39.93 12.439 39.035 13.335 37.93 13.335 z" style="stroke: none; stroke-width: 1; stroke-dasharray: none; stroke-linecap: butt; stroke-linejoin: miter; stroke-miterlimit: 10; fill: rgb(0,0,0); fill-rule: nonzero; opacity: 1;" transform=" matrix(1 0 0 1 0 0) " stroke-linecap="round" />
	<path d="M 37.93 90 c -1.104 0 -2 -0.896 -2 -2 v -9.335 c 0 -1.104 0.896 -2 2 -2 s 2 0.896 2 2 V 88 C 39.93 89.104 39.035 90 37.93 90 z" style="stroke: none; stroke-width: 1; stroke-dasharray: none; stroke-linecap: butt; stroke-linejoin: miter; stroke-miterlimit: 10; fill: rgb(0,0,0); fill-rule: nonzero; opacity: 1;" transform=" matrix(1 0 0 1 0 0) " stroke-linecap="round" />
	<path d="M 52.07 13.335 c -1.104 0 -2 -0.896 -2 -2 V 2 c 0 -1.104 0.896 -2 2 -2 s 2 0.896 2 2 v 9.335 C 54.07 12.439 53.175 13.335 52.07 13.335 z" style="stroke: none; stroke-width: 1; stroke-dasharray: none; stroke-linecap: butt; stroke-linejoin: miter; stroke-miterlimit: 10; fill: rgb(0,0,0); fill-rule: nonzero; opacity: 1;" transform=" matrix(1 0 0 1 0 0) " stroke-linecap="round" />
	<path d="M 52.07 90 c -1.104 0 -2 -0.896 -2 -2 v -9.335 c 0 -1.104 0.896 -2 2 -2 s 2 0.896 2 2 V 88 C 54.07 89.104 53.175 90 52.07 90 z" style="stroke: none; stroke-width: 1; stroke-dasharray: none; stroke-linecap: butt; stroke-linejoin: miter; stroke-miterlimit: 10; fill: rgb(0,0,0); fill-rule: nonzero; opacity: 1;" transform=" matrix(1 0 0 1 0 0) " stroke-linecap="round" />
	<path d="M 11.335 68.21 H 2 c -1.104 0 -2 -0.896 -2 -2 s 0.896 -2 2 -2 h 9.335 c 1.104 0 2 0.896 2 2 S 12.439 68.21 11.335 68.21 z" style="stroke: none; stroke-width: 1; stroke-dasharray: none; stroke-linecap: butt; stroke-linejoin: miter; stroke-miterlimit: 10; fill: rgb(0,0,0); fill-rule: nonzero; opacity: 1;" transform=" matrix(1 0 0 1 0 0) " stroke-linecap="round" />
	<path d="M 88 68.21 h -9.335 c -1.104 0 -2 -0.896 -2 -2 s 0.896 -2 2 -2 H 88 c 1.104 0 2 0.896 2 2 S 89.104 68.21 88 68.21 z" style="stroke: none; stroke-width: 1; stroke-dasharray: none; stroke-linecap: butt; stroke-linejoin: miter; stroke-miterlimit: 10; fill: rgb(0,0,0); fill-rule: nonzero; opacity: 1;" transform=" matrix(1 0 0 1 0 0) " stroke-linecap="round" />
	<path d="M 11.335 25.791 H 2 c -1.104 0 -2 -0.896 -2 -2 s 0.896 -2 2 -2 h 9.335 c 1.104 0 2 0.896 2 2 S 12.439 25.791 11.335 25.791 z" style="stroke: none; stroke-width: 1; stroke-dasharray: none; stroke-linecap: butt; stroke-linejoin: miter; stroke-miterlimit: 10; fill: rgb(0,0,0); fill-rule: nonzero; opacity: 1;" transform=" matrix(1 0 0 1 0 0) " stroke-linecap="round" />
	<path d="M 88 25.791 h -9.335 c -1.104 0 -2 -0.896 -2 -2 s 0.896 -2 2 -2 H 88 c 1.104 0 2 0.896 2 2 S 89.104 25.791 88 25.791 z" style="stroke: none; stroke-width: 1; stroke-dasharray: none; stroke-linecap: butt; stroke-linejoin: miter; stroke-miterlimit: 10; fill: rgb(0,0,0); fill-rule: nonzero; opacity: 1;" transform=" matrix(1 0 0 1 0 0) " stroke-linecap="round" />
	<path d="M 11.335 54.07 H 2 c -1.104 0 -2 -0.896 -2 -2 s 0.896 -2 2 -2 h 9.335 c 1.104 0 2 0.896 2 2 S 12.439 54.07 11.335 54.07 z" style="stroke: none; stroke-width: 1; stroke-dasharray: none; stroke-linecap: butt; stroke-linejoin: miter; stroke-miterlimit: 10; fill: rgb(0,0,0); fill-rule: nonzero; opacity: 1;" transform=" matrix(1 0 0 1 0 0) " stroke-linecap="round" />
	<path d="M 88 54.07 h -9.335 c -1.104 0 -2 -0.896 -2 -2 s 0.896 -2 2 -2 H 88 c 1.104 0 2 0.896 2 2 S 89.104 54.07 88 54.07 z" style="stroke: none; stroke-width: 1; stroke-dasharray: none; stroke-linecap: butt; stroke-linejoin: miter; stroke-miterlimit: 10; fill: rgb(0,0,0); fill-rule: nonzero; opacity: 1;" transform=" matrix(1 0 0 1 0 0) " stroke-linecap="round" />
	<path d="M 11.335 39.93 H 2 c -1.104 0 -2 -0.896 -2 -2 s 0.896 -2 2 -2 h 9.335 c 1.104 0 2 0.896 2 2 S 12.439 39.93 11.335 39.93 z" style="stroke: none; stroke-width: 1; stroke-dasharray: none; stroke-linecap: butt; stroke-linejoin: miter; stroke-miterlimit: 10; fill: rgb(0,0,0); fill-rule: nonzero; opacity: 1;" transform=" matrix(1 0 0 1 0 0) " stroke-linecap="round" />
	<path d="M 88 39.93 h -9.335 c -1.104 0 -2 -0.896 -2 -2 s 0.896 -2 2 -2 H 88 c 1.104 0 2 0.896 2 2 S 89.104 39.93 88 39.93 z" style="stroke: none; stroke-width: 1; stroke-dasharray: none; stroke-linecap: butt; stroke-linejoin: miter; stroke-miterlimit: 10; fill: rgb(0,0,0); fill-rule: nonzero; opacity: 1;" transform=" matrix(1 0 0 1 0 0) " stroke-linecap="round" />
	<path d="M 65.669 70.943 H 24.331 c -2.908 0 -5.274 -2.366 -5.274 -5.274 V 24.331 c 0 -2.908 2.366 -5.274 5.274 -5.274 h 41.338 c 2.908 0 5.274 2.366 5.274 5.274 v 41.338 C 70.943 68.577 68.577 70.943 65.669 70.943 z M 24.331 23.057 c -0.703 0 -1.274 0.572 -1.274 1.274 v 41.338 c 0 0.703 0.572 1.274 1.274 1.274 h 41.338 c 0.703 0 1.274 -0.571 1.274 -1.274 V 24.331 c 0 -0.703 -0.571 -1.274 -1.274 -1.274 H 24.331 z" style="stroke: none; stroke-width: 1; stroke-dasharray: none; stroke-linecap: butt; stroke-linejoin: miter; stroke-miterlimit: 10; fill: rgb(0,0,0); fill-rule: nonzero; opacity: 1;" transform=" matrix(1 0 0 1 0 0) " stroke-linecap="round" />
	<path d="M 52.244 60.223 c -4.232 0 -9.458 -2.346 -14.121 -6.687 c -0.285 -0.265 -0.567 -0.537 -0.847 -0.818 c -0.779 -0.782 -0.777 -2.049 0.005 -2.828 c 0.782 -0.778 2.048 -0.777 2.829 0.006 c 0.244 0.244 0.49 0.481 0.738 0.713 c 5.884 5.477 12.181 6.806 14.375 4.614 c 0.66 -0.66 1.002 -1.638 1.016 -2.905 c 0.013 -1.097 0.905 -1.978 2 -1.978 c 0.007 0 0.015 0 0.022 0 c 1.104 0.013 1.99 0.918 1.978 2.022 c -0.026 2.316 -0.782 4.284 -2.188 5.688 C 56.585 59.518 54.563 60.223 52.244 60.223 z" style="stroke: none; stroke-width: 1; stroke-dasharray: none; stroke-linecap: butt; stroke-linejoin: miter; stroke-miterlimit: 10; fill: rgb(0,0,0); fill-rule: nonzero; opacity: 1;" transform=" matrix(1 0 0 1 0 0) " stroke-linecap="round" />
	<path d="M 51.307 40.693 c -0.512 0 -1.023 -0.195 -1.414 -0.586 c -6.025 -6.024 -12.8 -7.644 -15.116 -5.33 c -0.697 0.697 -1.039 1.747 -1.015 3.118 c 0.02 1.104 -0.86 2.016 -1.964 2.035 c -0.012 0 -0.024 0 -0.036 0 c -1.088 0 -1.98 -0.873 -1.999 -1.965 c -0.043 -2.462 0.712 -4.543 2.185 -6.017 c 4.333 -4.33 13.456 -1.988 20.772 5.33 c 0.781 0.781 0.781 2.047 0 2.828 C 52.33 40.498 51.818 40.693 51.307 40.693 z" style="stroke: none; stroke-width: 1; stroke-dasharray: none; stroke-linecap: butt; stroke-linejoin: miter; stroke-miterlimit: 10; fill: rgb(0,0,0); fill-rule: nonzero; opacity: 1;" transform=" matrix(1 0 0 1 0 0) " stroke-linecap="round" />
	<path d="M 37.423 60.232 c -0.026 0 -0.052 0 -0.078 -0.001 c -2.188 -0.084 -4.054 -0.838 -5.397 -2.181 c -4.33 -4.33 -1.988 -13.454 5.33 -20.772 l 0.458 -0.449 c 0.793 -0.768 2.061 -0.747 2.828 0.048 c 0.768 0.794 0.746 2.06 -0.048 2.828 l -0.412 0.404 c -6.021 6.021 -7.642 12.799 -5.327 15.113 c 0.626 0.626 1.542 0.966 2.721 1.011 c 1.104 0.043 1.964 0.972 1.922 2.075 C 39.379 59.387 38.493 60.232 37.423 60.232 z" style="stroke: none; stroke-width: 1; stroke-dasharray: none; stroke-linecap: butt; stroke-linejoin: miter; stroke-miterlimit: 10; fill: rgb(0,0,0); fill-rule: nonzero; opacity: 1;" transform=" matrix(1 0 0 1 0 0) " stroke-linecap="round" />
	<path d="M 50.975 53.635 c -0.523 0 -1.047 -0.204 -1.439 -0.611 c -0.767 -0.795 -0.744 -2.061 0.051 -2.828 l 0.3 -0.297 c 2.884 -2.883 4.972 -6.161 5.886 -9.237 c 0.776 -2.614 0.576 -4.759 -0.549 -5.885 c -0.657 -0.657 -1.632 -0.999 -2.895 -1.015 c -1.104 -0.014 -1.988 -0.921 -1.975 -2.025 c 0.014 -1.096 0.907 -1.975 1.999 -1.975 c 0.009 0 0.018 0 0.026 0 c 2.31 0.029 4.271 0.786 5.672 2.187 c 2.228 2.228 2.78 5.727 1.555 9.852 c -1.1 3.703 -3.545 7.581 -6.885 10.92 c -0.114 0.116 -0.235 0.235 -0.357 0.354 C 51.976 53.448 51.475 53.635 50.975 53.635 z" style="stroke: none; stroke-width: 1; stroke-dasharray: none; stroke-linecap: butt; stroke-linejoin: miter; stroke-miterlimit: 10; fill: rgb(0,0,0); fill-rule: nonzero; opacity: 1;" transform=" matrix(1 0 0 1 0 0) " stroke-linecap="round" />
	<circle cx="45.001999999999995" cy="45.001999999999995" r="3.272" style="stroke: none; stroke-width: 1; stroke-dasharray: none; stroke-linecap: butt; stroke-linejoin: miter; stroke-miterlimit: 10; fill: rgb(0,0,0); fill-rule: nonzero; opacity: 1;" transform="  matrix(1 0 0 1 0 0) "/>
</g>
</svg>